<?xml version="1.0" encoding="UTF-8"?>
<svg width="40px" height="40px" viewBox="0 0 40 40" version="1.1" xmlns="http://www.w3.org/2000/svg" xmlns:xlink="http://www.w3.org/1999/xlink">
    <g stroke="none" stroke-width="1" fill="none" fill-rule="evenodd">
        <rect fill="#F0DB4F" x="0" y="0" width="40" height="40" rx="2"></rect>
        <path d="M30.5885064,29.2939479 C28.1232748,28.2414855 25.3667809,27.2098677 24.9079379,24.1396489 C24.6117131,22.1578967 25.2045444,20.3084129 26.9017292,19.1505906 C28.2564996,18.2262277 30.0220146,18.0405213 31.6107873,18.2724648 C33.4587567,18.5423075 34.7768806,19.5659664 35.6861686,21.1584932 C35.6927853,21.169863 35.6903677,21.1792115 35.6789157,21.1865387 L32.7811806,23.0341275 C32.7694741,23.0417074 32.7603125,23.0394334 32.7536958,23.0273056 C32.3440964,22.2901651 31.8050894,21.680745 30.9366469,21.5011025 C30.4129092,21.3927107 29.8246587,21.425683 29.3600896,21.6724072 C28.606167,22.0730023 28.366057,22.9636349 28.6672443,23.7333688 C28.9367478,24.4227563 29.7532746,24.8222145 30.3758811,25.0947102 C32.0245858,25.815933 33.8454522,26.4776541 35.1998408,27.6987682 C36.5278898,28.8963847 36.9619202,30.5904815 36.7481498,32.3228566 C36.4171873,35.009156 34.2374919,36.4500858 31.6768271,36.7343302 C28.4378228,37.0939942 25.298069,35.9933997 23.7131136,33.0095911 C23.7045254,32.9939792 23.7101316,32.9744141 23.7257108,32.965628 L26.7475091,31.228326 C26.7605894,31.220859 26.7772872,31.2252573 26.7849189,31.2381798 C27.7442139,32.8485193 29.1741857,33.7004946 31.0954478,33.4416427 C32.0894805,33.3074793 33.0556466,32.6988172 33.0315975,31.586853 C33.0186185,31.0009305 32.7561135,30.5254211 32.2440823,30.1603249 C31.7314149,29.7949761 31.1603424,29.5380191 30.5885064,29.2939479 Z" fill="#323330" fill-rule="nonzero"></path>
        <path d="M17.6855515,36.6334462 C14.7468735,37.2286175 11.7937754,36.2482012 10.4750892,33.3773083 C10.4702825,33.3669134 10.4727273,33.3586735 10.4826788,33.3525887 L13.4957344,31.5256222 C13.5008058,31.5225777 13.5068793,31.5217087 13.5125424,31.5232173 C13.5182055,31.524726 13.5229647,31.5284808 13.5257132,31.5336086 C14.021691,32.4459509 14.5988771,33.3674204 15.7430034,33.4377761 C17.2943096,33.5332317 17.9181715,32.6908648 17.9196894,31.2358328 C17.9242432,26.9389375 17.9262671,22.6424225 17.9257611,18.3462878 C17.9257611,18.3357861 17.934256,18.3272727 17.944735,18.3272727 L21.6533739,18.3272727 C21.6640625,18.3272727 21.6727273,18.3359563 21.6727273,18.3466681 C21.6727273,22.5619254 21.6727273,26.7799716 21.6727273,31.0008067 C21.6727273,31.9641094 21.5604018,32.9011713 21.2048308,33.7960198 C20.5874201,35.3503103 19.2983332,36.3071479 17.6855515,36.6334462 Z" fill="#323330" fill-rule="nonzero"></path>
    </g>
</svg>