<?xml version="1.0" encoding="UTF-8"?>
<svg width="40px" height="40px" viewBox="0 0 40 40" version="1.1" xmlns="http://www.w3.org/2000/svg"
    xmlns:xlink="http://www.w3.org/1999/xlink">
    <g stroke="none" stroke-width="1" fill="none" fill-rule="evenodd">
        <rect fill="#5382A1" x="0" y="0" width="40" height="40" rx="2"></rect>
        <g transform="translate(8.000000, 3.000000)" fill-rule="nonzero">
            <path
                d="M7.72947825,24.7474483 C7.72947825,24.7474483 6.48597351,25.4585472 8.61447901,25.6991627 C11.1931637,25.9884202 12.5110074,25.947005 15.3527521,25.4180586 C15.3527521,25.4180586 16.0999102,25.878721 17.1431992,26.2777703 C10.7729462,28.9625279 2.72587448,26.1222087 7.72947825,24.7474483 M6.95103938,21.2439309 C6.95103938,21.2439309 5.55631286,22.2592041 7.68642008,22.4758229 C10.441012,22.7552594 12.6163445,22.7781442 16.3805891,22.0653776 C16.3805891,22.0653776 16.9012443,22.5844103 17.7199148,22.868294 C10.0177795,25.0830314 1.43902892,23.0429417 6.95103938,21.2439309"
                fill="#FFFFFF"></path>
            <path
                d="M13.5134053,15.3009039 C15.0830968,17.0779564 13.1010079,18.6771184 13.1010079,18.6771184 C13.1010079,18.6771184 17.0865735,16.6538913 15.2561774,14.120248 C13.5466646,11.7576391 12.2356048,10.5835615 19.3328529,6.53599544 C19.3328529,6.53599544 8.19256552,9.27198922 13.5134053,15.3008113"
                fill="#E76F00"></path>
            <path
                d="M21.9386728,27.3388133 C21.9386728,27.3388133 22.8589115,28.0843786 20.9251571,28.6612258 C17.2481593,29.7566424 5.62094722,30.0874077 2.39092529,28.7048645 C1.22986234,28.2082534 3.40726759,27.5189275 4.09214681,27.3742061 C4.80642241,27.2218873 5.21467412,27.2503313 5.21467412,27.2503313 C3.92340026,26.3557827 -3.1315435,29.0067226 1.63114183,29.7658149 C14.6195384,31.8371281 25.307668,28.8331866 21.9386728,27.3388133 M8.32739317,17.6139444 C8.32739317,17.6139444 2.41316102,18.9953757 6.23308923,19.4968974 C7.84593316,19.7092542 11.0611627,19.6612608 14.0561077,19.4144377 C16.5037336,19.2115313 18.9614409,18.7797761 18.9614409,18.7797761 C18.9614409,18.7797761 18.0983932,19.1432472 17.4740027,19.5624945 C11.4680953,21.1157941 -0.134242949,20.3932063 3.2059212,18.8043287 C6.03070643,17.4616256 8.32748738,17.6139444 8.32748738,17.6139444 M18.9370381,23.4456044 C25.042441,20.3258488 22.2195402,17.3278371 20.2492287,17.7317969 C19.7662611,17.8305632 19.5509703,17.916173 19.5509703,17.916173 C19.5509703,17.916173 19.7302694,17.6400721 20.0726619,17.5205519 C23.9705094,16.1729383 26.968281,21.495016 18.8143648,23.6028338 C18.8143648,23.6029264 18.9088666,23.5199108 18.9370381,23.4456044"
                id="形状" fill="#FFFFFF"></path>
            <path
                d="M15.2561774,0 C15.2561774,0 18.6374212,3.32627541 12.0492392,8.44072149 C6.76627557,12.5435077 10.8445528,14.8827685 12.0470722,17.5554814 C8.96327841,14.8194876 6.70013371,12.4109236 8.21847579,10.1693174 C10.4468536,6.87862006 16.6203769,5.2832568 15.2561774,0"
                fill="#E76F00"></path>
            <path
                d="M8.9273809,31.8993897 C14.7877197,32.2683273 23.7868762,31.694723 24,28.9679017 C24,28.9679017 23.590335,30.0017052 19.1567573,30.822596 C14.1548494,31.7481828 7.98575442,31.6401513 4.32675256,31.0469049 C4.32675256,31.0469049 5.07579505,31.6565506 8.92747512,31.8993897"
                fill="#FFFFFF"></path>
        </g>
    </g>
</svg>