<svg width="40px" height="40px" viewBox="0 0 40 40" version="1.1" xmlns="http://www.w3.org/2000/svg"
  xmlns:xlink="http://www.w3.org/1999/xlink">
  <g stroke="none" stroke-width="1" fill="none" fill-rule="evenodd">
    <rect fill="#05C773" x="0" y="0" width="40" height="40" rx="2"></rect>
    <g transform="translate(7.000000, 8.000000)" fill="#FFFFFF" fill-rule="nonzero">
      <path
        d="M19.5248422,0.000314230265 C23.6471471,0.000314230265 27,3.0102764 27,6.73189629 C27,7.88854841 26.6557715,9.02020086 26.0348103,10.040188 C25.0949316,11.5301693 23.591463,12.6334888 21.7724517,13.1584822 C21.3865879,13.2779498 20.9854541,13.3424868 20.5811512,13.3501464 C20.2069914,13.356868 19.8458482,13.2145178 19.5791781,12.955203 C19.3125079,12.6958882 19.1627707,12.3414493 19.1637398,11.9718304 C19.1637398,11.1968402 19.7880757,10.5951811 20.5811512,10.5951811 C20.6368352,10.5951811 20.7532654,10.5951811 20.8950066,10.5418484 C22.1166802,10.2085193 23.0818699,9.52186122 23.6218361,8.60853936 C23.9896881,8.03187995 24.1618024,7.39188799 24.1618024,6.73189629 C24.1618024,4.54859039 22.0863071,2.76027954 19.5552153,2.76027954 C18.6822144,2.76156142 17.8235128,2.97932779 17.0578714,3.39360491 C15.7180801,4.1369289 14.9250047,5.37691332 14.9250047,6.73189629 L14.9250047,18.291751 C14.9250047,20.6350549 13.5869008,22.7883611 11.3696644,24.0033459 C10.1783639,24.6650042 8.83857259,25 7.4751578,25 C3.35454034,25 0,21.9883712 0,18.2667513 C0,17.1117658 0.34591588,15.9784467 0.965189676,14.9584595 C1.90506843,13.4684783 3.41022436,12.3651588 5.22754828,11.8418321 C5.73714143,11.7035005 6.08136991,11.6501678 6.41884882,11.6501678 C7.21698644,11.6501678 7.83794763,12.2584935 7.83794763,13.0268172 C7.83891672,13.396436 7.68917945,13.750875 7.4225093,14.0101897 C7.15583916,14.2695045 6.79469599,14.4118548 6.42053622,14.4051332 C6.3631648,14.4051332 6.24673458,14.4051332 6.10668083,14.4584658 C4.88331979,14.8167947 3.91981751,15.5084526 3.37985126,16.3901082 C3.01031186,16.9684343 2.83988501,17.6067596 2.83988501,18.2684179 C2.83988501,20.4517238 4.91538029,22.238368 7.47009562,22.238368 C8.34352209,22.2378763 9.20282949,22.0206765 9.96912693,21.6067093 C11.3072308,20.8617187 12.1003062,19.6217343 12.1003062,18.2684179 L12.1003062,6.73689622 C12.1003062,4.39359234 13.4384101,2.24195272 15.6556465,1.02530135 C16.8269436,0.34231016 18.1647159,-0.0120785769 19.5248422,0.000314230265 Z"></path>
    </g>
  </g>
</svg>