<svg width="40px" height="40px" viewBox="0 0 40 40" version="1.1" xmlns="http://www.w3.org/2000/svg"
  xmlns:xlink="http://www.w3.org/1999/xlink">
  <defs>
    <rect id="path-1" x="0" y="0" width="40" height="40" rx="2"></rect>
  </defs>
  <g id="node-js" stroke="none" stroke-width="1" fill="none" fill-rule="evenodd">
    <mask id="mask-2" fill="white">
      <use xlink:href="#path-1"></use>
    </mask>
    <use fill="#7DB742" xlink:href="#path-1"></use>
    <g id="Node.js" mask="url(#mask-2)" fill="#FFFFFF" fill-rule="nonzero">
      <g transform="translate(7.000000, 5.000000)">
        <path
          d="M24.8722655,6.42053885 L14.1342721,0.286327885 C13.4576314,-0.0954426284 12.5554438,-0.0954426284 11.8788031,0.286327885 L1.12773447,6.42053885 C0.424943425,6.81525074 0,7.54967368 0,8.35203882 L0,20.6204608 C0,21.4228259 0.438018607,22.1701902 1.12773447,22.5649021 L3.94216746,24.1663971 C5.30852401,24.8361131 5.79884335,24.8361131 6.4231833,24.8361131 C8.45310536,24.8361131 9.60699019,23.6131533 9.60699019,21.5134155 L9.60699019,9.40029007 C9.60699019,9.22881687 9.47296958,9.09940313 9.30299221,9.09940313 L7.94971084,9.09940313 C7.77646467,9.09940313 7.64571285,9.23205221 7.64571285,9.40029007 L7.64571285,21.5101802 C7.64571285,22.4419591 6.66507418,23.3769733 5.06990194,22.5875495 L2.12471712,20.905171 C2.02011567,20.8404641 1.95147096,20.7336978 1.95147096,20.6172254 L1.95147096,8.34880348 C1.95147096,8.22909578 2.01684687,8.11262342 2.12471712,8.06085792 L12.8496354,1.91370558 C12.9542369,1.86194009 13.0882575,1.86194009 13.1830526,1.91370558 L23.921046,8.04791655 C24.0256475,8.09968204 24.0942922,8.21938975 24.0942922,8.33586211 L24.0942922,20.604284 C24.0942922,20.7239917 24.0289163,20.8404641 23.9341212,20.8922296 L13.1928589,27.0296759 C13.1013327,27.0814414 12.9542369,27.0814414 12.8594418,27.0296759 L10.1005783,25.4152396 C10.0221272,25.3764155 9.91425698,25.3634741 9.83580588,25.4022982 C9.08071411,25.8358342 8.93361831,25.8875997 8.21775207,26.1367211 C8.03143073,26.1884866 7.77973347,26.295253 8.30927835,26.5961399 L11.8918783,28.6991131 C12.2383706,28.896469 12.6208197,29 13.0196128,29 C13.4053307,28.9870586 13.8041237,28.896469 14.1342721,28.6861717 L24.8722655,22.5519607 C25.5619814,22.1572488 26,21.4228259 26,20.6204608 L26,8.34880348 C26,7.56261505 25.5619814,6.8120154 24.8722655,6.42053885 L24.8722655,6.42053885 Z"></path>
        <path
          d="M16.6697329,19.100055 C13.8332344,19.100055 13.2097923,18.37768 12.9976261,16.9560198 C12.9715134,16.7943925 12.8507418,16.68884 12.6940653,16.68884 L11.3035608,16.68884 C11.1305638,16.68884 11,16.8240792 11,16.995602 C11,18.8163826 11.9792285,21 16.672997,21 L16.6599407,20.9868059 C20.0513353,20.9868059 22,19.6344145 22,17.2759758 C22,14.9472237 20.4364985,14.3172073 17.1364985,13.8752062 C13.8103858,13.4332051 13.4643917,13.2056075 13.4643917,12.4139637 C13.4643917,11.7707532 13.7548961,10.899945 16.2192878,10.899945 C18.4323442,10.899945 19.2418398,11.3815283 19.5715134,12.8823529 C19.6106825,13.0175921 19.731454,13.1231446 19.8750742,13.1231446 L21.2688427,13.1231446 C21.347181,13.1231446 21.4418398,13.0967565 21.4940653,13.0307861 C21.5462908,12.9648158 21.5854599,12.8823529 21.5724036,12.7899945 C21.347181,10.2039582 19.6498516,9 16.2192878,9 C13.1706231,9 11.34273,10.2996152 11.34273,12.4832325 C11.34273,14.8548653 13.1575668,15.5112699 16.1017804,15.8048378 C19.6139466,16.1544805 19.8913947,16.675646 19.8913947,17.3716328 C19.8913947,18.575591 18.9350148,19.100055 16.6697329,19.100055 Z"></path>
      </g>
    </g>
  </g>
</svg>