<?xml version="1.0" encoding="UTF-8"?>
<svg width="40px" height="40px" viewBox="0 0 40 40" version="1.1" xmlns="http://www.w3.org/2000/svg"
  xmlns:xlink="http://www.w3.org/1999/xlink">
  <g stroke="none" stroke-width="1" fill="none" fill-rule="evenodd">
    <rect fill="#1976D2" x="0" y="0" width="40" height="40" rx="2"></rect>
    <g transform="translate(11.000000, 19.000000)" fill="#FFFFFF" fill-rule="nonzero">
      <polygon
        points="13.368923 0 0 0 0 3.264 4.79499108 3.264 4.79499108 18 8.59409165 18 8.59409165 3.264 13.368923 3.264"></polygon>
      <path
        d="M25.1663953,4.084 C25.1663953,4.084 23.3651237,2.892 21.3289912,2.892 C19.2928588,2.892 18.5600527,3.852 18.5600527,4.878 C18.5600527,7.526 26,7.261 26,12.59 C26,20.799 14.6561216,17.158 14.6561216,17.158 L14.6561216,13.22 C14.6561216,13.22 16.8253082,14.842 19.426921,14.842 C22.0285338,14.842 21.9297511,13.154 21.9297511,12.922 C21.9297511,10.473 14.5563309,10.473 14.5563309,5.044 C14.5563309,-2.337 25.2994495,0.575 25.2994495,0.575 L25.1663953,4.084 Z"></path>
    </g>
  </g>
</svg>